<svg width="50" height="50" viewBox="0 0 50 50" fill="none" xmlns="http://www.w3.org/2000/svg">
<path d="M19 3.4641C22.7128 1.32051 27.2872 1.32051 31 3.4641L40.6506 9.0359C44.3634 11.1795 46.6506 15.141 46.6506 19.4282V30.5718C46.6506 34.859 44.3634 38.8205 40.6506 40.9641L31 46.5359C27.2872 48.6795 22.7128 48.6795 19 46.5359L9.34937 40.9641C5.63655 38.8205 3.34937 34.859 3.34937 30.5718V19.4282C3.34937 15.141 5.63655 11.1795 9.34937 9.0359L19 3.4641Z" fill="#7239EA"/>
<path d="M21.7139 35C21.5579 35 21.4279 34.948 21.3239 34.844C21.2199 34.7227 21.1679 34.584 21.1679 34.428C21.1679 34.3413 21.1852 34.2633 21.2199 34.194L27.2259 20.726H19.4519C19.2612 20.726 19.0965 20.6653 18.9579 20.544C18.8365 20.4053 18.7759 20.2407 18.7759 20.05V17.45C18.7759 17.2593 18.8365 17.1033 18.9579 16.982C19.0965 16.8607 19.2612 16.8 19.4519 16.8H31.5939C31.8019 16.8 31.9665 16.8607 32.0879 16.982C32.2092 17.1033 32.2699 17.2593 32.2699 17.45V19.764C32.2699 20.128 32.1745 20.518 31.9839 20.934L25.9779 34.376C25.7872 34.792 25.4839 35 25.0679 35H21.7139Z" fill="white"/>
</svg>
